# xmcd
#
# Track frame offsets: 
#        150
#        16770
#        39060
#        60749
#        78821
#        81574
#        102458
#        115790
#        134884
#
# Disc length: 2020 seconds
#
# Revision: 0
# Processed by: cddbd v1.5.1PL0 Copyright (c) Steve Scherf et al.
# Submitted via: ExactAudioCopy v0.95a3
#
DISCID=6d07e209
DTITLE=Shanice Wilson - Discovery
DYEAR=1987
DGENRE=R&B
TTITLE0=I Think I Love You
TTITLE1=No 1/2 Steppin'
TTITLE2=(Baby Tell Me) Can You Dance
TTITLE3=Spend Some Time With Me
TTITLE4=He's So Cute
TTITLE5=I'll Bet She's Got A Boyfriend
TTITLE6=Do I Know You
TTITLE7=Just A Game
TTITLE8=The Way You Love Me
EXTD=
EXTT0=
EXTT1=
EXTT2=
EXTT3=
EXTT4=
EXTT5=
EXTT6=
EXTT7=
EXTT8=
PLAYORDER=
